%TF.GenerationSoftware,KiCad,Pcbnew,(5.1.12)-1*%
%TF.CreationDate,2022-02-13T14:47:13-06:00*%
%TF.ProjectId,TranscieverBoard,5472616e-7363-4696-9576-6572426f6172,rev?*%
%TF.SameCoordinates,Original*%
%TF.FileFunction,Soldermask,Bot*%
%TF.FilePolarity,Negative*%
%FSLAX46Y46*%
G04 Gerber Fmt 4.6, Leading zero omitted, Abs format (unit mm)*
G04 Created by KiCad (PCBNEW (5.1.12)-1) date 2022-02-13 14:47:13*
%MOMM*%
%LPD*%
G01*
G04 APERTURE LIST*
%ADD10O,1.700000X1.700000*%
%ADD11R,1.700000X1.700000*%
G04 APERTURE END LIST*
D10*
%TO.C,J5*%
X137160000Y-86360000D03*
X137160000Y-83820000D03*
X137160000Y-81280000D03*
X137160000Y-78740000D03*
X137160000Y-76200000D03*
X137160000Y-73660000D03*
X137160000Y-71120000D03*
X137160000Y-68580000D03*
X137160000Y-66040000D03*
D11*
X137160000Y-63500000D03*
%TD*%
D10*
%TO.C,J4*%
X129540000Y-57150000D03*
X127000000Y-57150000D03*
X124460000Y-57150000D03*
X121920000Y-57150000D03*
X119380000Y-57150000D03*
X116840000Y-57150000D03*
X114300000Y-57150000D03*
X111760000Y-57150000D03*
X109220000Y-57150000D03*
D11*
X106680000Y-57150000D03*
%TD*%
D10*
%TO.C,J3*%
X128270000Y-90170000D03*
X125730000Y-90170000D03*
X123190000Y-90170000D03*
X120650000Y-90170000D03*
X118110000Y-90170000D03*
X115570000Y-90170000D03*
X113030000Y-90170000D03*
X110490000Y-90170000D03*
X107950000Y-90170000D03*
D11*
X105410000Y-90170000D03*
%TD*%
D10*
%TO.C,J2*%
X96520000Y-86360000D03*
X96520000Y-83820000D03*
X96520000Y-81280000D03*
X96520000Y-78740000D03*
X96520000Y-76200000D03*
X96520000Y-73660000D03*
X96520000Y-71120000D03*
X96520000Y-68580000D03*
X96520000Y-66040000D03*
D11*
X96520000Y-63500000D03*
%TD*%
M02*
