%TF.GenerationSoftware,KiCad,Pcbnew,(5.1.12)-1*%
%TF.CreationDate,2022-02-13T14:47:13-06:00*%
%TF.ProjectId,TranscieverBoard,5472616e-7363-4696-9576-6572426f6172,rev?*%
%TF.SameCoordinates,Original*%
%TF.FileFunction,Paste,Top*%
%TF.FilePolarity,Positive*%
%FSLAX46Y46*%
G04 Gerber Fmt 4.6, Leading zero omitted, Abs format (unit mm)*
G04 Created by KiCad (PCBNEW (5.1.12)-1) date 2022-02-13 14:47:13*
%MOMM*%
%LPD*%
G01*
G04 APERTURE LIST*
%ADD10C,0.100000*%
%ADD11R,0.254000X0.762000*%
%ADD12R,0.762000X0.254000*%
%ADD13R,1.000000X1.050000*%
%ADD14R,1.050000X2.200000*%
G04 APERTURE END LIST*
D10*
%TO.C,U1*%
G36*
X114918900Y-71688900D02*
G01*
X114918900Y-72936700D01*
X116166700Y-72936700D01*
X116166700Y-71688900D01*
X114918900Y-71688900D01*
G37*
X114918900Y-71688900D02*
X114918900Y-72936700D01*
X116166700Y-72936700D01*
X116166700Y-71688900D01*
X114918900Y-71688900D01*
G36*
X114918900Y-73136700D02*
G01*
X114918900Y-74384500D01*
X116166700Y-74384500D01*
X116166700Y-73136700D01*
X114918900Y-73136700D01*
G37*
X114918900Y-73136700D02*
X114918900Y-74384500D01*
X116166700Y-74384500D01*
X116166700Y-73136700D01*
X114918900Y-73136700D01*
G36*
X114918900Y-74584500D02*
G01*
X114918900Y-75832300D01*
X116166700Y-75832300D01*
X116166700Y-74584500D01*
X114918900Y-74584500D01*
G37*
X114918900Y-74584500D02*
X114918900Y-75832300D01*
X116166700Y-75832300D01*
X116166700Y-74584500D01*
X114918900Y-74584500D01*
G36*
X116366700Y-71688900D02*
G01*
X116366700Y-72936700D01*
X117614500Y-72936700D01*
X117614500Y-71688900D01*
X116366700Y-71688900D01*
G37*
X116366700Y-71688900D02*
X116366700Y-72936700D01*
X117614500Y-72936700D01*
X117614500Y-71688900D01*
X116366700Y-71688900D01*
G36*
X116366700Y-73136700D02*
G01*
X116366700Y-74384500D01*
X117614500Y-74384500D01*
X117614500Y-73136700D01*
X116366700Y-73136700D01*
G37*
X116366700Y-73136700D02*
X116366700Y-74384500D01*
X117614500Y-74384500D01*
X117614500Y-73136700D01*
X116366700Y-73136700D01*
G36*
X116366700Y-74584500D02*
G01*
X116366700Y-75832300D01*
X117614500Y-75832300D01*
X117614500Y-74584500D01*
X116366700Y-74584500D01*
G37*
X116366700Y-74584500D02*
X116366700Y-75832300D01*
X117614500Y-75832300D01*
X117614500Y-74584500D01*
X116366700Y-74584500D01*
G36*
X117814500Y-71688900D02*
G01*
X117814500Y-72936700D01*
X119062300Y-72936700D01*
X119062300Y-71688900D01*
X117814500Y-71688900D01*
G37*
X117814500Y-71688900D02*
X117814500Y-72936700D01*
X119062300Y-72936700D01*
X119062300Y-71688900D01*
X117814500Y-71688900D01*
G36*
X117814500Y-73136700D02*
G01*
X117814500Y-74384500D01*
X119062300Y-74384500D01*
X119062300Y-73136700D01*
X117814500Y-73136700D01*
G37*
X117814500Y-73136700D02*
X117814500Y-74384500D01*
X119062300Y-74384500D01*
X119062300Y-73136700D01*
X117814500Y-73136700D01*
G36*
X117814500Y-74584500D02*
G01*
X117814500Y-75832300D01*
X119062300Y-75832300D01*
X119062300Y-74584500D01*
X117814500Y-74584500D01*
G37*
X117814500Y-74584500D02*
X117814500Y-75832300D01*
X119062300Y-75832300D01*
X119062300Y-74584500D01*
X117814500Y-74584500D01*
%TD*%
D11*
%TO.C,U1*%
X114740599Y-70839600D03*
X115240601Y-70839600D03*
X115740600Y-70839600D03*
X116240599Y-70839600D03*
X116740600Y-70839600D03*
X117240600Y-70839600D03*
X117740601Y-70839600D03*
X118240600Y-70839600D03*
X118740599Y-70839600D03*
X119240601Y-70839600D03*
D12*
X119911600Y-71510599D03*
X119911600Y-72010601D03*
X119911600Y-72510600D03*
X119911600Y-73010599D03*
X119911600Y-73510600D03*
X119911600Y-74010600D03*
X119911600Y-74510601D03*
X119911600Y-75010600D03*
X119911600Y-75510599D03*
X119911600Y-76010601D03*
D11*
X119240601Y-76681600D03*
X118740599Y-76681600D03*
X118240600Y-76681600D03*
X117740601Y-76681600D03*
X117240600Y-76681600D03*
X116740600Y-76681600D03*
X116240599Y-76681600D03*
X115740600Y-76681600D03*
X115240601Y-76681600D03*
X114740599Y-76681600D03*
D12*
X114069600Y-76010601D03*
X114069600Y-75510599D03*
X114069600Y-75010600D03*
X114069600Y-74510601D03*
X114069600Y-74010600D03*
X114069600Y-73510600D03*
X114069600Y-73010599D03*
X114069600Y-72510600D03*
X114069600Y-72010601D03*
X114069600Y-71510599D03*
%TD*%
D13*
%TO.C,J1*%
X117930000Y-100560000D03*
D14*
X116480000Y-99060000D03*
X119380000Y-99060000D03*
%TD*%
M02*
