%TF.GenerationSoftware,KiCad,Pcbnew,(5.1.12)-1*%
%TF.CreationDate,2022-02-13T14:47:13-06:00*%
%TF.ProjectId,TranscieverBoard,5472616e-7363-4696-9576-6572426f6172,rev?*%
%TF.SameCoordinates,Original*%
%TF.FileFunction,Copper,L2,Bot*%
%TF.FilePolarity,Positive*%
%FSLAX46Y46*%
G04 Gerber Fmt 4.6, Leading zero omitted, Abs format (unit mm)*
G04 Created by KiCad (PCBNEW (5.1.12)-1) date 2022-02-13 14:47:13*
%MOMM*%
%LPD*%
G01*
G04 APERTURE LIST*
%TA.AperFunction,ComponentPad*%
%ADD10O,1.700000X1.700000*%
%TD*%
%TA.AperFunction,ComponentPad*%
%ADD11R,1.700000X1.700000*%
%TD*%
G04 APERTURE END LIST*
D10*
%TO.P,J5,10*%
%TO.N,Net-(J5-Pad10)*%
X137160000Y-86360000D03*
%TO.P,J5,9*%
%TO.N,Net-(J5-Pad9)*%
X137160000Y-83820000D03*
%TO.P,J5,8*%
%TO.N,Net-(J5-Pad8)*%
X137160000Y-81280000D03*
%TO.P,J5,7*%
%TO.N,Net-(J5-Pad7)*%
X137160000Y-78740000D03*
%TO.P,J5,6*%
%TO.N,Net-(J5-Pad6)*%
X137160000Y-76200000D03*
%TO.P,J5,5*%
%TO.N,Net-(J5-Pad5)*%
X137160000Y-73660000D03*
%TO.P,J5,4*%
%TO.N,Net-(J5-Pad4)*%
X137160000Y-71120000D03*
%TO.P,J5,3*%
%TO.N,Net-(J5-Pad3)*%
X137160000Y-68580000D03*
%TO.P,J5,2*%
%TO.N,Net-(J5-Pad2)*%
X137160000Y-66040000D03*
D11*
%TO.P,J5,1*%
%TO.N,Net-(J5-Pad1)*%
X137160000Y-63500000D03*
%TD*%
D10*
%TO.P,J4,10*%
%TO.N,Net-(J4-Pad10)*%
X129540000Y-57150000D03*
%TO.P,J4,9*%
%TO.N,Net-(J4-Pad9)*%
X127000000Y-57150000D03*
%TO.P,J4,8*%
%TO.N,Net-(J4-Pad8)*%
X124460000Y-57150000D03*
%TO.P,J4,7*%
%TO.N,Net-(J4-Pad7)*%
X121920000Y-57150000D03*
%TO.P,J4,6*%
%TO.N,Net-(J4-Pad6)*%
X119380000Y-57150000D03*
%TO.P,J4,5*%
%TO.N,Net-(J4-Pad5)*%
X116840000Y-57150000D03*
%TO.P,J4,4*%
%TO.N,Net-(J4-Pad4)*%
X114300000Y-57150000D03*
%TO.P,J4,3*%
%TO.N,Net-(J4-Pad3)*%
X111760000Y-57150000D03*
%TO.P,J4,2*%
%TO.N,Net-(J4-Pad2)*%
X109220000Y-57150000D03*
D11*
%TO.P,J4,1*%
%TO.N,Net-(J4-Pad1)*%
X106680000Y-57150000D03*
%TD*%
D10*
%TO.P,J3,10*%
%TO.N,Net-(J3-Pad10)*%
X128270000Y-90170000D03*
%TO.P,J3,9*%
%TO.N,Net-(J3-Pad9)*%
X125730000Y-90170000D03*
%TO.P,J3,8*%
%TO.N,Net-(J3-Pad8)*%
X123190000Y-90170000D03*
%TO.P,J3,7*%
%TO.N,Net-(J3-Pad7)*%
X120650000Y-90170000D03*
%TO.P,J3,6*%
%TO.N,Net-(J1-Pad2)*%
X118110000Y-90170000D03*
%TO.P,J3,5*%
%TO.N,Net-(J1-Pad1)*%
X115570000Y-90170000D03*
%TO.P,J3,4*%
%TO.N,Net-(J3-Pad4)*%
X113030000Y-90170000D03*
%TO.P,J3,3*%
%TO.N,Net-(J3-Pad3)*%
X110490000Y-90170000D03*
%TO.P,J3,2*%
%TO.N,Net-(J3-Pad2)*%
X107950000Y-90170000D03*
D11*
%TO.P,J3,1*%
%TO.N,Net-(J3-Pad1)*%
X105410000Y-90170000D03*
%TD*%
D10*
%TO.P,J2,10*%
%TO.N,Net-(J2-Pad10)*%
X96520000Y-86360000D03*
%TO.P,J2,9*%
%TO.N,Net-(J2-Pad9)*%
X96520000Y-83820000D03*
%TO.P,J2,8*%
%TO.N,Net-(J2-Pad8)*%
X96520000Y-81280000D03*
%TO.P,J2,7*%
%TO.N,Net-(J2-Pad7)*%
X96520000Y-78740000D03*
%TO.P,J2,6*%
%TO.N,Net-(J2-Pad6)*%
X96520000Y-76200000D03*
%TO.P,J2,5*%
%TO.N,Net-(J2-Pad5)*%
X96520000Y-73660000D03*
%TO.P,J2,4*%
%TO.N,Net-(J2-Pad4)*%
X96520000Y-71120000D03*
%TO.P,J2,3*%
%TO.N,Net-(J2-Pad3)*%
X96520000Y-68580000D03*
%TO.P,J2,2*%
%TO.N,Net-(J2-Pad2)*%
X96520000Y-66040000D03*
D11*
%TO.P,J2,1*%
%TO.N,Net-(J2-Pad1)*%
X96520000Y-63500000D03*
%TD*%
M02*
