M48
; DRILL file {KiCad (5.1.12)-1} date 02/13/22 14:47:15
; FORMAT={-:-/ absolute / inch / decimal}
; #@! TF.CreationDate,2022-02-13T14:47:15-06:00
; #@! TF.GenerationSoftware,Kicad,Pcbnew,(5.1.12)-1
; #@! TF.FileFunction,Plated,1,2,PTH
FMAT,2
INCH
T1C0.0394
%
G90
G05
T1
X3.8Y-2.5
X3.8Y-2.6
X3.8Y-2.7
X3.8Y-2.8
X3.8Y-2.9
X3.8Y-3.0
X3.8Y-3.1
X3.8Y-3.2
X3.8Y-3.3
X3.8Y-3.4
X4.15Y-3.55
X4.2Y-2.25
X4.25Y-3.55
X4.3Y-2.25
X4.35Y-3.55
X4.4Y-2.25
X4.45Y-3.55
X4.5Y-2.25
X4.55Y-3.55
X4.6Y-2.25
X4.65Y-3.55
X4.7Y-2.25
X4.75Y-3.55
X4.8Y-2.25
X4.85Y-3.55
X4.9Y-2.25
X4.95Y-3.55
X5.0Y-2.25
X5.05Y-3.55
X5.1Y-2.25
X5.4Y-2.5
X5.4Y-2.6
X5.4Y-2.7
X5.4Y-2.8
X5.4Y-2.9
X5.4Y-3.0
X5.4Y-3.1
X5.4Y-3.2
X5.4Y-3.3
X5.4Y-3.4
T0
M30
